{"title":"Black.Swan.2010.1080p.BRRip.XviD.DTS-RSB","uid":6268590,"size":7542875638,"categoryP":"video","categoryS":"hd___movies","magnet":"?xt=urn:btih:d437f4ac7546a9eb7725621a63f427198f7fa389&amp;dn=Black.Swan.2010.1080p.BRRip.XviD.DTS-RSB&amp;tr=udp%3A%2F%2Ftracker.openbittorrent.com%3A80&amp;tr=udp%3A%2F%2Fopen.demonii.com%3A1337&amp;tr=udp%3A%2F%2Ftracker.coppersurfer.tk%3A6969&amp;tr=udp%3A%2F%2Fexodus.desync.com%3A6969","seeders":0,"leechers":1,"uploader":"RealSB","files":7,"time":1300992053,"description":"\nBlack.Swan.2010.1080p.BRRip.XviD.DTS-RSB\n\n\nPlot:\n\nNina (Portman) is a ballerina in a New York City ballet company whose life, like all those in her profession, is completely consumed with dance. She lives with her obsessive former ballerina mother Erica (Hershey) who exerts a suffocating control over her. When artistic director Thomas Leroy (Cassel) decides to replace prima ballerina Beth MacIntyre (Ryder) for the opening production of their new season, Swan Lake, Nina is his first choice. But Nina has competition: a new dancer, Lily (Kunis), who impresses Leroy as well. Swan Lake requires a dancer who can play both the White Swan with innocence and grace, and the Black Swan, who represents guile and sensuality. Nina fits the White Swan role perfectly but Lily is the personification of the Black Swan. As the two young dancers expand their rivalry into a twisted friendship, Nina begins to get more in touch with her dark side - a recklessness that threatens to destroy her.\n\n\nCast:\n\nNatalie Portman\t... \tNina Sayers\nMila Kunis\t... \tLily\nVincent Cassel\t... \tThomas Leroy\nBarbara Hershey\t... \tErica Sayers\nWinona Ryder\t... \tBeth Macintyre\nBenjamin Millepied\t... \tDavid\nKsenia Solo\t... \tVeronica\nKristina Anapau\t... \tGalina\nJanet Montgomery\t... \tMadeline\nSebastian Stan\t... \tAndrew\nToby Hemingway\t... \tTom\nSergio Torrado\t... \tSergio\nMark Margolis\t... \tMr. Fithian\nTina Sloan\t... \tMrs. Fithian\nAbraham Aronofsky\t... \tMr. Stein\nCharlotte Aronofsky\t... \tMrs. Stein\nMarcia Jean Kurtz\t... \tGeorgina\nShaun O'Hagan\t... \tSebastian\nChristopher Gartin\t... \tWaiter Scott\nDeborah Offner\t... \tSusie\n\n\nSOURCE: Black.Swan.2010.BluRay.1080p.DTS.x264-CHD\n\nAUDIO LANGUAGE: English\n\n\nFormat                           : AVI\nFormat/Info                      : Audio Video Interleave\nFormat profile                   : OpenDML\nFile size                        : 6.97 GiB\nDuration                         : 1h 48mn\nOverall bit rate                 : 9 227 Kbps\nWriting application              : VirtualDubMod 1.5.10.3 | www.virtualdub-fr.org || (build 2550/release)\nWriting library                  : VirtualDubMod build 2550/release\n\nVideo\nID                               : 0\nFormat                           : MPEG-4 Visual\nFormat profile                   : Advanced Simple@L5\nFormat settings, BVOP            : 3\nFormat settings, QPel            : No\nFormat settings, GMC             : No warppoints\nFormat settings, Matrix          : Default (MPEG)\nCodec ID                         : XVID\nCodec ID/Hint                    : XviD\nDuration                         : 1h 48mn\nBit rate                         : 7 710 Kbps\nWidth                            : 1 920 pixels\nHeight                           : 1 080 pixels\nDisplay aspect ratio             : 16:9\nFrame rate                       : 23.976 fps\nColor space                      : YUV\nChroma subsampling               : 4:2:0\nBit depth                        : 8 bits\nScan type                        : Progressive\nCompression mode                 : Lossy\nBits/(Pixel*Frame)               : 0.155\nStream size                      : 5.82 GiB (84%)\nWriting library                  : XviD 1.2.1 (UTC 2008-12-04)\n\nAudio\nID                               : 1\nFormat                           : DTS\nFormat/Info                      : Digital Theater Systems\nCodec ID                         : 2001\nCodec ID/Info                    : Digital Theater Systems\nDuration                         : 1h 48mn\nBit rate mode                    : Constant\nBit rate                         : 1 510 Kbps\nChannel(s)                       : 6 channels\nChannel positions                : Front: L C R, Side: L R, LFE\nSampling rate                    : 48.0 KHz\nBit depth                        : 24 bits\nCompression mode                 : Lossy\nStream size                      : 1.14 GiB (16%)\nAlignment                        : Split accross interleaves\nInterleave, duration             : 42 ms (1.00 video frame)\nInterleave, preload duration     : 500 ms\n\n\n          EnJoY iT ! :)\n\n\n","torrent":{"xt":"urn:btih:d437f4ac7546a9eb7725621a63f427198f7fa389","amp;dn":"Black.Swan.2010.1080p.BRRip.XviD.DTS-RSB","amp;tr":["udp%3A%2F%2Ftracker.openbittorrent.com%3A80","udp%3A%2F%2Fopen.demonii.com%3A1337","udp%3A%2F%2Ftracker.coppersurfer.tk%3A6969","udp%3A%2F%2Fexodus.desync.com%3A6969"],"infoHash":"d437f4ac7546a9eb7725621a63f427198f7fa389","infoHashBuffer":{"type":"Buffer","data":[212,55,244,172,117,70,169,235,119,37,98,26,99,244,39,25,143,127,163,137]},"announce":[],"urlList":[]}}